# xmcd CD database file
#
# Track frame offsets:
#	150
#	30425
#	45093
#	66125
#	84245
#	106020
#	130193
#	149593
#	163575
#	189900
#	229508
#
# Disc length: 3304 seconds
#
# Revision: 1
# Processed by: cddbd v1.4PL0 Copyright (c) Steve Scherf et al.
# Submitted via: CDex 1.50Beta7
#
DISCID=7b0ce60b
DTITLE=John Kaizan Neptune - Dance for the one in six
DYEAR=1991
DGENRE=Jazz
TTITLE0=Dance for the One in Six
TTITLE1=No Clouds
TTITLE2=Under the Trees
TTITLE3=Evening Waves
TTITLE4=Traveling Together
TTITLE5=Gentle Face
TTITLE6=East of Everywhere
TTITLE7=Mountain Echo
TTITLE8=Joy
TTITLE9=West of Somewhere
TTITLE10=Playground
EXTD=YEAR: 1991
EXTT0=
EXTT1=
EXTT2=
EXTT3=
EXTT4=
EXTT5=
EXTT6=
EXTT7=
EXTT8=
EXTT9=
EXTT10=
PLAYORDER=
